PathFileType	4	(X/Y/Z)	D:/Dropbox/2017/2017-10 SOFAMEA OpenSim seminar/OpenSim workshop LucaClement/Hands-on_Paris2017_Luca/For Participants/3_Scaling/transformed_Static_for_scaling.trc	
DataRate	CameraRate	NumFrames	NumMarkers	Units	OrigDataRate	OrigDataStartFrame	OrigNumFrames	
120.00	120.00	8	47	mm	120.00	262	697	
Frame#	Time	Sternum			Neck			RShoulder			LShoulder			Xiphoid			Thoracic			RAsis			LAsis			RPsis			LPsis			LThighSuperior			LThighInferior			LThighLateral			LKneeLateral			LKneeMedial			LShankSuperior			LShankInferior			LShankLateral			LAnkleLateral			LAnkleMedial			RThighSuperior			RThighInferior			RThighLateral			RKneeLateral			RShankSuperior			RShankInferior			RShankLateral			RAnkleLateral			RankleMedial			RHeel			RToe			RMidfootMedial			RMidfootLateral			RHindfoot			RMidfootSuperior			RToeMedial			RToeLateral			LHeel			LToe			LMidfootMedial			LMidfootLateral			LHindfoot			LMidfootSuperior			LToeMedial			LToeLateral			RKneeMedial			Sacral			
		X1	Y1	Z1	X2	Y2	Z2	X3	Y3	Z3	X4	Y4	Z4	X5	Y5	Z5	X6	Y6	Z6	X7	Y7	Z7	X8	Y8	Z8	X9	Y9	Z9	X10	Y10	Z10	X11	Y11	Z11	X12	Y12	Z12	X13	Y13	Z13	X14	Y14	Z14	X15	Y15	Z15	X16	Y16	Z16	X17	Y17	Z17	X18	Y18	Z18	X19	Y19	Z19	X20	Y20	Z20	X21	Y21	Z21	X22	Y22	Z22	X23	Y23	Z23	X24	Y24	Z24	X25	Y25	Z25	X26	Y26	Z26	X27	Y27	Z27	X28	Y28	Z28	X29	Y29	Z29	X30	Y30	Z30	X31	Y31	Z31	X32	Y32	Z32	X33	Y33	Z33	X34	Y34	Z34	X35	Y35	Z35	X36	Y36	Z36	X37	Y37	Z37	X38	Y38	Z38	X39	Y39	Z39	X40	Y40	Z40	X41	Y41	Z41	X42	Y42	Z42	X43	Y43	Z43	X44	Y44	Z44	X45	Y45	Z45	X46	Y46	Z46	X47	Y47	Z47	

262	2.175	538.26721	1456.75305	-464.85745	384.69989	1572.77991	-454.18762	435.27695	1554.82788	-299.61050	411.44238	1554.66992	-600.30798	563.93921	1302.16382	-457.07123	295.10153	1353.02026	-450.49435	490.83264	1039.16992	-321.94388	504.23523	1044.55298	-603.80450	305.56073	1068.44067	-412.50424	304.46680	1068.14697	-514.80408	445.24451	874.35693	-658.09039	469.71600	643.30450	-639.91461	544.54260	747.27673	-586.78400	473.97601	558.30566	-642.70337	466.28796	565.76318	-500.09344	465.28333	406.11151	-660.90070	429.92786	205.25192	-643.33575	488.06833	294.64618	-602.21893	410.82980	124.50464	-643.59003	439.53616	125.24022	-557.94037	426.52588	846.58893	-286.30167	441.00018	610.40985	-310.34161	530.44989	764.07294	-339.15915	433.59027	545.50616	-309.37946	420.73938	448.81519	-303.88892	413.91403	194.51453	-335.80527	480.22925	318.86374	-367.57770	404.95276	120.03471	-339.51736	436.80887	137.52435	-425.78613	331.82147	79.60255	-394.87576	646.29565	62.54609	-351.53815	552.75330	49.34573	-414.63483	541.06659	43.35624	-295.60727	486.35156	43.65883	-309.77573	514.51892	110.80346	-364.45844	597.93628	50.08048	-403.93494	588.77185	48.27771	-300.94434	341.52094	83.37457	-591.05408	648.80524	73.79903	-642.78937	555.51654	50.70784	-578.40948	541.88599	47.17520	-694.90289	487.83554	46.54703	-680.07581	523.50745	112.64022	-625.51526	597.25757	51.47224	-586.96436	586.18243	56.88362	-690.11768	477.31912	543.13770	-445.31033	305.01376	1068.29382	-463.65417 
263	2.183	538.20282	1456.76062	-464.79791	384.65027	1572.77734	-454.26675	435.17822	1554.77136	-299.63303	411.41104	1554.68579	-600.35083	563.85748	1302.26587	-457.19247	295.09695	1353.00610	-450.50290	490.81641	1039.14465	-321.98364	504.23624	1044.55383	-603.83002	305.52908	1068.43665	-412.53464	304.43497	1068.16553	-514.87347	445.23367	874.36218	-658.10883	469.71033	643.33063	-639.95801	544.48914	747.33539	-586.74353	473.95563	558.31183	-642.71838	466.22089	565.77228	-500.11401	465.27252	406.12985	-660.96185	429.88501	205.25891	-643.33197	488.06247	294.60849	-602.27246	410.81339	124.50212	-643.59381	439.64407	125.32435	-558.11273	426.50766	846.58405	-286.35269	441.00778	610.40210	-310.39087	530.45068	764.09357	-339.23376	433.56531	545.51221	-309.37137	420.73920	448.81226	-303.90918	413.90607	194.54085	-335.81137	480.21088	318.85602	-367.57742	404.93503	120.03658	-339.49869	436.85007	137.53291	-425.80243	331.82803	79.66855	-394.91660	646.28833	62.54704	-351.57025	552.96985	49.37974	-414.77762	541.06403	43.35830	-295.57852	486.34937	43.67370	-309.75589	514.51074	110.80217	-364.46021	597.93457	50.09280	-403.92117	588.81824	48.29582	-300.99115	341.52225	83.31747	-590.94397	648.81061	73.85658	-642.80011	555.50415	50.70557	-578.43890	541.87463	47.19008	-694.88574	487.82190	46.52508	-680.08612	523.49823	112.63667	-625.52368	597.30988	51.43464	-586.93097	586.16925	56.87779	-690.13379	477.30975	543.12878	-445.33533	304.98203	1068.30103	-463.70404 
264	2.192	538.14929	1456.75464	-464.79782	384.61295	1572.81543	-454.15524	435.05215	1554.76868	-299.62549	411.37085	1554.70020	-600.35071	563.79883	1302.29016	-457.24719	295.05704	1353.00232	-450.54813	490.77158	1039.14294	-322.02679	504.19839	1044.57288	-603.85895	305.51715	1068.39111	-412.67603	304.44418	1068.15625	-514.95087	445.18500	874.37042	-658.18091	469.69339	643.32373	-639.99207	544.45038	747.33704	-586.80042	474.10739	558.29926	-642.79254	466.12085	565.83472	-500.14859	465.24045	406.10989	-660.98376	429.72122	205.22589	-643.29877	488.01712	294.63159	-602.24884	410.79507	124.49953	-643.59735	439.54846	125.23064	-557.97089	426.46448	846.58374	-286.39484	441.00146	610.40039	-310.42554	530.41937	764.08630	-339.25534	433.57581	545.49493	-309.41214	420.71198	448.89664	-303.90408	413.89493	194.50790	-335.84299	480.22891	318.85318	-367.60516	404.96521	120.03391	-339.49930	436.86185	137.53668	-425.80911	331.81607	79.63821	-394.89536	646.27893	62.55799	-351.54721	552.97089	49.38018	-414.75174	541.08319	43.30884	-295.64725	486.33456	43.60210	-309.79004	514.51404	110.82574	-364.43787	597.91907	50.10212	-403.92349	588.70465	48.17626	-300.96683	341.44858	83.34628	-591.06195	648.79413	73.82281	-642.76672	555.49127	50.68328	-578.47418	541.84509	47.19744	-694.86926	487.77097	46.53572	-680.06720	523.47699	112.65551	-625.54486	597.32086	51.44460	-586.89362	586.14642	56.86645	-690.13293	477.31299	543.13708	-445.38391	304.98065	1068.27368	-463.81345 
265	2.200	538.06842	1456.75928	-464.74219	384.52484	1572.77551	-454.30579	434.95038	1554.71313	-299.66046	411.31586	1554.72083	-600.36395	563.76398	1302.32690	-457.29172	295.01666	1353.00305	-450.62982	490.74261	1039.13684	-322.08981	504.17426	1044.59290	-603.91754	305.47583	1068.39233	-412.66919	304.36765	1068.15637	-514.96246	445.11371	874.38074	-658.19971	469.65152	643.35620	-640.09955	544.42291	747.32446	-586.83490	474.10767	558.32843	-642.84045	466.73984	565.26709	-500.59964	465.21216	406.10062	-660.98309	429.65393	205.19882	-643.26239	488.00632	294.63034	-602.25452	410.73105	124.51020	-643.59100	439.54379	125.27908	-557.92236	426.44791	846.57251	-286.42520	441.00238	610.39929	-310.45859	530.41705	764.09729	-339.31631	433.60880	545.45752	-309.44733	420.71277	448.89282	-303.94583	413.89609	194.52960	-335.85645	480.22833	318.84933	-367.61359	404.94934	120.04174	-339.48538	436.81488	137.52785	-425.79266	331.90765	79.76336	-394.51303	646.26880	62.57594	-351.54617	552.61139	49.03241	-414.27112	541.08160	43.34816	-295.60843	486.35394	43.59178	-309.81201	514.48309	110.80229	-364.46222	597.90118	50.09899	-403.92413	588.69324	48.24174	-301.16263	341.45905	83.31007	-590.99670	648.79352	73.86066	-642.79297	555.51465	50.70142	-578.41595	541.84589	47.17480	-694.86121	487.72714	46.52824	-680.05963	523.48657	112.64921	-625.51483	597.22278	51.50204	-586.97986	586.14905	56.86858	-690.10468	477.30161	543.14532	-445.43353	304.92175	1068.27441	-463.81583 
266	2.208	537.97150	1456.75842	-464.77762	384.31317	1572.71680	-454.41241	434.83752	1554.70728	-299.60129	411.24597	1554.70862	-600.41931	563.74768	1302.33630	-457.32629	294.96643	1352.97998	-450.68466	490.71057	1039.13171	-322.11786	504.14624	1044.55847	-603.96631	305.43805	1068.39136	-412.68750	304.34354	1068.15430	-515.01208	445.10794	874.38477	-658.28955	469.59024	643.29120	-640.09235	544.40192	747.34503	-586.88794	474.03854	558.33582	-642.86719	467.25952	564.99268	-500.78586	465.15298	406.10477	-660.98022	429.64822	205.14688	-643.32581	487.98785	294.64236	-602.29504	410.73343	124.51429	-643.58038	439.54291	125.23858	-557.97144	426.43164	846.57013	-286.47025	441.01355	610.38446	-310.49561	530.38660	764.10791	-339.35828	433.60938	545.47601	-309.46906	420.71225	448.89020	-303.95276	413.89499	194.52115	-335.85803	480.22476	318.84470	-367.62973	404.93646	120.04494	-339.49951	436.81659	137.49405	-425.79187	331.82520	79.67937	-394.91571	646.25250	62.59346	-351.56445	552.89307	49.34517	-414.70917	541.09442	43.58429	-295.46228	486.33698	43.61143	-309.79611	514.47260	110.80550	-364.44083	597.90076	50.09859	-403.92401	588.72339	48.18453	-300.96097	341.39456	83.32309	-590.93640	648.77661	73.82870	-642.78046	555.49603	50.69421	-578.45642	541.82697	47.16784	-694.86383	487.71075	46.50343	-680.05823	523.45844	112.65123	-625.55261	597.23145	51.48594	-586.99384	586.13403	56.86665	-690.11981	477.31601	543.14154	-445.45621	304.89081	1068.27283	-463.84979 
267	2.217	537.89996	1456.79004	-464.77271	384.23865	1572.69128	-454.49634	434.70239	1554.69141	-299.61465	411.17679	1554.72046	-600.44019	563.69604	1302.34497	-457.34573	294.95825	1352.94519	-450.75864	490.68994	1039.15698	-322.16660	504.07092	1044.56018	-603.98541	305.43735	1068.39673	-412.77155	304.34140	1068.14014	-515.09027	445.05380	874.40027	-658.32178	469.59225	643.40076	-640.12915	544.37592	747.35406	-586.94513	474.00018	558.28674	-642.99298	467.37186	564.97992	-500.89728	465.11234	406.10260	-660.99768	429.75876	205.24135	-643.33044	487.98090	294.62955	-602.31195	410.73343	124.50497	-643.59973	439.55682	125.27225	-557.94806	426.41614	846.56091	-286.50287	440.99930	610.38654	-310.52213	530.36981	764.10406	-339.41122	433.61481	545.45355	-309.49701	420.71234	448.89105	-303.95300	413.89276	194.51776	-335.85822	480.22266	318.84430	-367.63528	404.93112	120.06153	-339.49942	436.82086	137.49237	-425.79382	331.81528	79.61781	-394.92514	646.23608	62.57120	-351.59747	552.92126	49.41854	-414.78461	541.06500	43.40424	-295.57520	486.36673	43.60450	-309.82883	514.46875	110.80575	-364.43735	597.90430	50.08539	-403.92807	588.81702	48.32294	-301.01547	341.39151	83.32838	-590.93939	648.78949	73.87528	-642.79816	555.51410	50.71063	-578.41345	541.81714	47.17564	-694.88336	487.69943	46.51754	-680.09875	523.46899	112.66043	-625.53040	597.22852	51.50587	-587.00854	586.12439	56.87245	-690.13654	477.29428	543.12244	-445.52264	304.88937	1068.26843	-463.93091 
268	2.225	537.79504	1456.81860	-464.73462	384.15387	1572.69043	-454.46027	434.56879	1554.68262	-299.58707	411.11609	1554.71973	-600.45508	563.55402	1302.34839	-457.28085	294.86426	1352.94153	-450.78683	490.65152	1039.12292	-322.31873	504.06317	1044.56055	-604.07251	305.40265	1068.31409	-412.88602	304.30084	1068.13220	-515.09344	445.01294	874.36487	-658.33923	469.57190	643.40051	-640.14233	544.34558	747.35345	-586.97717	473.90860	558.27777	-643.03809	467.26645	565.02533	-500.86917	465.13037	406.13251	-661.06549	429.62207	205.21921	-643.27716	487.97333	294.62900	-602.33148	410.70209	124.50504	-643.60486	439.52438	125.23861	-557.96234	426.39694	846.57355	-286.54059	440.99509	610.40363	-310.52090	530.36395	764.10791	-339.41971	433.62259	545.45856	-309.52048	420.71033	448.88791	-303.96045	413.88940	194.52505	-335.84317	480.22513	318.83472	-367.64899	404.95026	120.04967	-339.48779	436.82251	137.49442	-425.79550	331.89346	79.76956	-394.71210	646.24323	62.57910	-351.58188	552.56635	49.03723	-414.25696	541.08459	43.36413	-295.63818	486.38611	43.66658	-309.78781	514.46820	110.79100	-364.45071	597.90045	50.10532	-403.91888	588.72980	48.19780	-300.98056	341.48328	83.25619	-591.06012	648.78314	73.86465	-642.81805	555.52155	50.69380	-578.45740	541.79248	47.16602	-694.85052	487.66455	46.49487	-680.06683	523.45282	112.65368	-625.54999	597.23517	51.51542	-587.01971	586.08435	56.85707	-690.11029	477.28705	543.12048	-445.56009	304.85175	1068.22314	-463.98975 
269	2.233	537.72137	1456.81726	-464.73264	384.07736	1572.67517	-454.52747	434.43436	1554.64417	-299.57013	411.02570	1554.71765	-600.50690	563.50787	1302.36096	-457.29858	294.79398	1352.89465	-450.81860	490.63852	1039.10461	-322.35410	504.02481	1044.57568	-604.04150	305.40710	1068.30127	-412.92789	304.30212	1068.11560	-515.15521	444.96353	874.38312	-658.37933	469.60486	643.29156	-640.21643	544.32941	747.35809	-587.04370	473.92606	558.26184	-643.06195	467.24091	565.04102	-500.87927	465.11081	406.13126	-661.07526	429.60425	205.21280	-643.28870	487.97577	294.61902	-602.33527	410.73035	124.50481	-643.59998	439.65015	125.34847	-558.10663	426.35208	846.55225	-286.60352	440.99725	610.38531	-310.55728	530.35541	764.10693	-339.44016	433.60226	545.48627	-309.53836	420.72556	448.87735	-303.98059	413.89215	194.52385	-335.87283	480.21405	318.84790	-367.66748	404.95416	120.05474	-339.46262	436.82260	137.49477	-425.79578	331.82446	79.65973	-394.91388	646.26233	62.59881	-351.55063	552.85272	49.33320	-414.67831	541.04443	43.40982	-295.58014	486.36118	43.68820	-309.75369	514.48303	110.81842	-364.43930	597.90710	50.10644	-403.91290	588.72534	48.20124	-300.97281	341.49020	83.31065	-591.15143	648.78009	73.87167	-642.81207	555.51508	50.70231	-578.41766	541.78058	47.17002	-694.86487	487.67264	46.49369	-680.05383	523.45538	112.66332	-625.54449	597.22357	51.48798	-586.99384	586.09711	56.86675	-690.12390	477.29694	543.11853	-445.61969	304.85461	1068.20850	-464.04156 
